<?xml version="1.0" encoding="UTF-8" standalone="no"?>
<!DOCTYPE svg PUBLIC "-//W3C//DTD SVG 1.1//EN"
 "http://www.w3.org/Graphics/SVG/1.1/DTD/svg11.dtd">
<!-- Generated by graphviz version 2.50.0 (0)
 -->
<!-- Title: snakemake_dag Pages: 1 -->
<svg width="75pt" height="332pt"
 viewBox="0.00 0.00 75.00 332.00" xmlns="http://www.w3.org/2000/svg" xmlns:xlink="http://www.w3.org/1999/xlink">
<g id="graph0" class="graph" transform="scale(1 1) rotate(0) translate(4 328)">
<title>snakemake_dag</title>
<polygon fill="white" stroke="transparent" points="-4,4 -4,-328 71,-328 71,4 -4,4"/>
<!-- 0 -->
<g id="node1" class="node">
<title>0</title>
<path fill="none" stroke="#88d856" stroke-width="2" d="M48.5,-36C48.5,-36 18.5,-36 18.5,-36 12.5,-36 6.5,-30 6.5,-24 6.5,-24 6.5,-12 6.5,-12 6.5,-6 12.5,0 18.5,0 18.5,0 48.5,0 48.5,0 54.5,0 60.5,-6 60.5,-12 60.5,-12 60.5,-24 60.5,-24 60.5,-30 54.5,-36 48.5,-36"/>
<text text-anchor="middle" x="33.5" y="-15.5" font-family="sans" font-size="10.00">finish</text>
</g>
<!-- 1 -->
<g id="node2" class="node">
<title>1</title>
<path fill="none" stroke="#d85656" stroke-width="2" d="M48.5,-108C48.5,-108 18.5,-108 18.5,-108 12.5,-108 6.5,-102 6.5,-96 6.5,-96 6.5,-84 6.5,-84 6.5,-78 12.5,-72 18.5,-72 18.5,-72 48.5,-72 48.5,-72 54.5,-72 60.5,-78 60.5,-84 60.5,-84 60.5,-96 60.5,-96 60.5,-102 54.5,-108 48.5,-108"/>
<text text-anchor="middle" x="33.5" y="-87.5" font-family="sans" font-size="10.00">votings</text>
</g>
<!-- 1&#45;&gt;0 -->
<g id="edge1" class="edge">
<title>1&#45;&gt;0</title>
<path fill="none" stroke="grey" stroke-width="2" d="M33.5,-71.7C33.5,-63.98 33.5,-54.71 33.5,-46.11"/>
<polygon fill="grey" stroke="grey" stroke-width="2" points="37,-46.1 33.5,-36.1 30,-46.1 37,-46.1"/>
</g>
<!-- 2 -->
<g id="node3" class="node">
<title>2</title>
<path fill="none" stroke="#56d88a" stroke-width="2" d="M55,-180C55,-180 12,-180 12,-180 6,-180 0,-174 0,-168 0,-168 0,-156 0,-156 0,-150 6,-144 12,-144 12,-144 55,-144 55,-144 61,-144 67,-150 67,-156 67,-156 67,-168 67,-168 67,-174 61,-180 55,-180"/>
<text text-anchor="middle" x="33.5" y="-159.5" font-family="sans" font-size="10.00">dist_concat</text>
</g>
<!-- 2&#45;&gt;1 -->
<g id="edge2" class="edge">
<title>2&#45;&gt;1</title>
<path fill="none" stroke="grey" stroke-width="2" d="M33.5,-143.7C33.5,-135.98 33.5,-126.71 33.5,-118.11"/>
<polygon fill="grey" stroke="grey" stroke-width="2" points="37,-118.1 33.5,-108.1 30,-118.1 37,-118.1"/>
</g>
<!-- 3 -->
<g id="node4" class="node">
<title>3</title>
<path fill="none" stroke="#d8bc56" stroke-width="2" d="M48.5,-252C48.5,-252 18.5,-252 18.5,-252 12.5,-252 6.5,-246 6.5,-240 6.5,-240 6.5,-228 6.5,-228 6.5,-222 12.5,-216 18.5,-216 18.5,-216 48.5,-216 48.5,-216 54.5,-216 60.5,-222 60.5,-228 60.5,-228 60.5,-240 60.5,-240 60.5,-246 54.5,-252 48.5,-252"/>
<text text-anchor="middle" x="33.5" y="-231.5" font-family="sans" font-size="10.00">dist_res</text>
</g>
<!-- 3&#45;&gt;2 -->
<g id="edge3" class="edge">
<title>3&#45;&gt;2</title>
<path fill="none" stroke="grey" stroke-width="2" d="M33.5,-215.7C33.5,-207.98 33.5,-198.71 33.5,-190.11"/>
<polygon fill="grey" stroke="grey" stroke-width="2" points="37,-190.1 33.5,-180.1 30,-190.1 37,-190.1"/>
</g>
<!-- 4 -->
<g id="node5" class="node">
<title>4</title>
<path fill="none" stroke="#56c1d8" stroke-width="2" d="M54,-324C54,-324 13,-324 13,-324 7,-324 1,-318 1,-312 1,-312 1,-300 1,-300 1,-294 7,-288 13,-288 13,-288 54,-288 54,-288 60,-288 66,-294 66,-300 66,-300 66,-312 66,-312 66,-318 60,-324 54,-324"/>
<text text-anchor="middle" x="33.5" y="-303.5" font-family="sans" font-size="10.00">xtc_to_pdb</text>
</g>
<!-- 4&#45;&gt;3 -->
<g id="edge4" class="edge">
<title>4&#45;&gt;3</title>
<path fill="none" stroke="grey" stroke-width="2" d="M33.5,-287.7C33.5,-279.98 33.5,-270.71 33.5,-262.11"/>
<polygon fill="grey" stroke="grey" stroke-width="2" points="37,-262.1 33.5,-252.1 30,-262.1 37,-262.1"/>
</g>
</g>
</svg>
